<svg width="1348" height="295" viewBox="0 0 1348 295" fill="none" xmlns="http://www.w3.org/2000/svg">
<g filter="url(#filter0_d_1004_30736)">
<rect x="11" y="11" width="1318" height="265" rx="30" fill="#76357A"/>
<g filter="url(#filter1_d_1004_30736)">
<circle cx="1066.5" cy="143.5" r="114.5" fill="white"/>
</g>
<g clip-path="url(#clip0_1004_30736)">
<g clip-path="url(#clip1_1004_30736)">
<path d="M1082.97 123.629L1068.84 136.784L1055.73 110.319L1062.5 95.1021C1064.21 92.0668 1067.01 92.0267 1068.73 95.1021L1082.97 123.629Z" fill="#FFA000"/>
<path d="M1068.85 136.778L1016 185.934L1055.73 110.318L1068.85 136.778Z" fill="#F57F17"/>
<path d="M1098.46 103.511C1101 101.1 1103.6 101.913 1104.26 105.338L1118 185.271L1072.43 212.63C1070.83 213.523 1066.59 213.873 1066.59 213.873C1066.59 213.873 1062.74 213.403 1061.26 212.59L1016 185.936L1098.46 103.511Z" fill="#FFCA28"/>
<path d="M1055.73 110.319L1016 185.935L1033.71 75.4126C1034.37 71.9878 1036.31 71.6385 1038.07 74.6738L1055.73 110.319Z" fill="#FFA000"/>
</g>
<circle cx="1108" cy="187" r="26" fill="#6A6A6A"/>
<path d="M1105 175C1105 173.895 1105.9 173 1107 173H1109C1110.1 173 1111 173.895 1111 175V181H1107C1105.9 181 1105 180.105 1105 179V175Z" fill="white"/>
<rect x="1095.8" y="178.926" width="6.39209" height="8" rx="2" transform="rotate(-42.524 1095.8 178.926)" fill="white"/>
<rect x="1094" y="190" width="6" height="8" rx="2" transform="rotate(-90 1094 190)" fill="white"/>
<rect x="1100.24" y="198.898" width="6" height="8" rx="2" transform="rotate(-135 1100.24 198.898)" fill="white"/>
<rect x="1111" y="201" width="6" height="8" rx="2" transform="rotate(180 1111 201)" fill="white"/>
<path d="M1118.48 193.242C1119.27 194.023 1119.27 195.289 1118.48 196.07L1116.79 197.76C1116.01 198.541 1114.75 198.541 1113.97 197.76L1109.72 193.518L1114.24 188.999L1118.48 193.242Z" fill="white"/>
<circle cx="1108" cy="187" r="8" fill="white"/>
<circle cx="1108" cy="187" r="6" fill="#6A6A6A"/>
<circle cx="1108" cy="187" r="2" fill="white"/>
<rect x="1119.57" y="177" width="12" height="13" transform="rotate(41.2426 1119.57 177)" fill="#6A6A6A"/>
<rect x="1111" y="175" width="13" height="13" fill="#6A6A6A"/>
</g>
<path d="M219.262 195.68C196.822 195.68 178.582 179.6 178.582 149.96C178.582 120.68 197.422 103.52 219.862 103.52C231.142 103.52 240.142 108.92 245.902 114.92L236.542 126.2C232.102 121.88 226.942 118.76 220.222 118.76C206.782 118.76 196.702 130.28 196.702 149.36C196.702 168.68 205.822 180.32 219.862 180.32C227.422 180.32 233.422 176.72 238.222 171.56L247.582 182.6C240.262 191.12 230.782 195.68 219.262 195.68ZM260.449 194V126.8H274.849L276.049 138.68H276.529C281.449 129.92 288.649 125.12 295.609 125.12C299.329 125.12 301.489 125.72 303.529 126.56L300.409 141.8C298.129 141.08 296.209 140.72 293.449 140.72C288.169 140.72 281.809 144.2 277.969 153.92V194H260.449ZM325.524 195.68C313.524 195.68 305.604 187.16 305.604 175.76C305.604 161.36 317.244 153.8 344.244 150.92C344.004 144.32 341.124 139.28 332.844 139.28C326.604 139.28 320.604 142.04 314.364 145.64L308.004 134C315.924 129.08 325.524 125.12 336.084 125.12C353.124 125.12 361.884 135.32 361.884 154.76V194H347.484L346.164 186.8H345.804C339.924 191.84 333.204 195.68 325.524 195.68ZM331.284 181.88C336.324 181.88 340.044 179.48 344.244 175.28V161.72C327.924 163.88 322.404 168.32 322.404 174.32C322.404 179.6 326.124 181.88 331.284 181.88ZM399.063 195.68C390.063 195.68 380.103 191.72 373.503 186.2L381.543 175.16C387.543 179.84 393.303 182.48 399.543 182.48C406.263 182.48 409.263 179.6 409.263 175.4C409.263 170.36 402.303 168.08 395.223 165.32C386.703 162.08 376.863 156.92 376.863 145.76C376.863 133.64 386.703 125.12 401.823 125.12C411.663 125.12 419.103 129.2 424.743 133.4L416.823 144.08C412.023 140.72 407.343 138.32 402.303 138.32C396.303 138.32 393.423 140.96 393.423 144.8C393.423 149.72 400.023 151.52 407.103 154.16C415.983 157.52 425.823 161.96 425.823 174.44C425.823 186.2 416.583 195.68 399.063 195.68ZM439.277 194V98.24H456.797V122.36L456.077 134.96C461.477 129.92 468.077 125.12 477.197 125.12C491.717 125.12 497.957 135.2 497.957 152.12V194H480.317V154.28C480.317 143.96 477.437 140.24 470.837 140.24C465.317 140.24 461.837 142.88 456.797 147.8V194H439.277ZM516.035 194V126.8H530.435L531.635 138.68H532.115C537.035 129.92 544.235 125.12 551.195 125.12C554.915 125.12 557.075 125.72 559.115 126.56L555.995 141.8C553.715 141.08 551.795 140.72 549.035 140.72C543.755 140.72 537.395 144.2 533.555 153.92V194H516.035ZM575.821 221C571.861 221 569.221 220.52 566.581 219.68L569.821 206.12C571.021 206.48 572.941 206.96 574.501 206.96C581.341 206.96 585.181 202.64 587.101 196.76L588.301 192.8L562.141 126.8H579.901L590.581 158C592.621 164 594.301 170.48 596.221 176.96H596.821C598.381 170.72 600.061 164.24 601.621 158L610.861 126.8H627.781L603.901 196.04C598.021 211.88 590.821 221 575.821 221ZM663.447 195.68C647.487 195.68 641.367 185.6 641.367 170.48V140.72H631.887V127.64L642.207 126.8L644.247 108.8H659.007V126.8H675.567V140.72H659.007V170.48C659.007 178.16 662.127 181.76 668.127 181.76C670.287 181.76 672.927 181.04 674.727 180.32L677.607 193.16C674.007 194.36 669.327 195.68 663.447 195.68ZM689.238 194V126.8H706.758V194H689.238ZM698.118 116C691.998 116 687.558 111.92 687.558 106.4C687.558 100.64 691.998 96.8 698.118 96.8C704.118 96.8 708.558 100.64 708.558 106.4C708.558 111.92 704.118 116 698.118 116ZM754.243 195.68C735.643 195.68 721.483 182.72 721.483 160.52C721.483 138.08 737.563 125.12 755.803 125.12C764.083 125.12 770.443 128.36 775.363 132.56L766.963 143.96C763.603 141.08 760.483 139.52 756.643 139.52C746.443 139.52 739.483 147.8 739.483 160.52C739.483 173.12 746.443 181.28 756.163 181.28C760.963 181.28 765.523 179 769.243 175.88L776.203 187.52C769.843 193.16 761.683 195.68 754.243 195.68ZM808.164 195.68C799.164 195.68 789.204 191.72 782.604 186.2L790.644 175.16C796.644 179.84 802.404 182.48 808.644 182.48C815.364 182.48 818.364 179.6 818.364 175.4C818.364 170.36 811.404 168.08 804.324 165.32C795.804 162.08 785.964 156.92 785.964 145.76C785.964 133.64 795.804 125.12 810.924 125.12C820.764 125.12 828.204 129.2 833.844 133.4L825.924 144.08C821.124 140.72 816.444 138.32 811.404 138.32C805.404 138.32 802.524 140.96 802.524 144.8C802.524 149.72 809.124 151.52 816.204 154.16C825.084 157.52 834.924 161.96 834.924 174.44C834.924 186.2 825.684 195.68 808.164 195.68Z" fill="white"/>
</g>
<defs>
<filter id="filter0_d_1004_30736" x="0" y="0" width="1348" height="295" filterUnits="userSpaceOnUse" color-interpolation-filters="sRGB">
<feFlood flood-opacity="0" result="BackgroundImageFix"/>
<feColorMatrix in="SourceAlpha" type="matrix" values="0 0 0 0 0 0 0 0 0 0 0 0 0 0 0 0 0 0 127 0" result="hardAlpha"/>
<feOffset dx="4" dy="4"/>
<feGaussianBlur stdDeviation="7.5"/>
<feComposite in2="hardAlpha" operator="out"/>
<feColorMatrix type="matrix" values="0 0 0 0 0 0 0 0 0 0 0 0 0 0 0 0 0 0 0.12 0"/>
<feBlend mode="normal" in2="BackgroundImageFix" result="effect1_dropShadow_1004_30736"/>
<feBlend mode="normal" in="SourceGraphic" in2="effect1_dropShadow_1004_30736" result="shape"/>
</filter>
<filter id="filter1_d_1004_30736" x="940" y="17" width="253" height="253" filterUnits="userSpaceOnUse" color-interpolation-filters="sRGB">
<feFlood flood-opacity="0" result="BackgroundImageFix"/>
<feColorMatrix in="SourceAlpha" type="matrix" values="0 0 0 0 0 0 0 0 0 0 0 0 0 0 0 0 0 0 127 0" result="hardAlpha"/>
<feMorphology radius="2" operator="dilate" in="SourceAlpha" result="effect1_dropShadow_1004_30736"/>
<feOffset/>
<feGaussianBlur stdDeviation="5"/>
<feComposite in2="hardAlpha" operator="out"/>
<feColorMatrix type="matrix" values="0 0 0 0 0 0 0 0 0 0 0 0 0 0 0 0 0 0 0.12 0"/>
<feBlend mode="normal" in2="BackgroundImageFix" result="effect1_dropShadow_1004_30736"/>
<feBlend mode="normal" in="SourceGraphic" in2="effect1_dropShadow_1004_30736" result="shape"/>
</filter>
<clipPath id="clip0_1004_30736">
<rect width="148" height="178" fill="white" transform="translate(993 55)"/>
</clipPath>
<clipPath id="clip1_1004_30736">
<rect width="102" height="141.277" fill="white" transform="translate(1016 72.5996)"/>
</clipPath>
</defs>
</svg>
