<svg width="380" height="426" viewBox="0 0 380 426" fill="none" xmlns="http://www.w3.org/2000/svg">
<g filter="url(#filter0_d_248_11613)">
<rect x="11" y="11" width="350" height="395.294" rx="30" fill="#76357A"/>
<path d="M113.79 340.06C112.93 340.06 112.16 340.23 111.48 340.57C110.82 340.91 110.26 341.4 109.8 342.04C109.34 342.66 108.99 343.42 108.75 344.32C108.53 345.22 108.42 346.23 108.42 347.35C108.42 348.87 108.6 350.17 108.96 351.25C109.34 352.31 109.93 353.12 110.73 353.68C111.53 354.24 112.55 354.52 113.79 354.52C114.67 354.52 115.54 354.42 116.4 354.22C117.28 354.02 118.23 353.74 119.25 353.38V357.19C118.31 357.57 117.38 357.85 116.46 358.03C115.54 358.21 114.51 358.3 113.37 358.3C111.17 358.3 109.35 357.85 107.91 356.95C106.49 356.03 105.44 354.75 104.76 353.11C104.08 351.45 103.74 349.52 103.74 347.32C103.74 345.7 103.96 344.22 104.4 342.88C104.84 341.52 105.48 340.35 106.32 339.37C107.18 338.39 108.23 337.63 109.47 337.09C110.73 336.55 112.17 336.28 113.79 336.28C114.85 336.28 115.91 336.42 116.97 336.7C118.05 336.96 119.08 337.32 120.06 337.78L118.59 341.47C117.79 341.09 116.98 340.76 116.16 340.48C115.36 340.2 114.57 340.06 113.79 340.06ZM132.592 341.32C132.812 341.32 133.072 341.33 133.372 341.35C133.672 341.37 133.912 341.4 134.092 341.44L133.762 345.64C133.622 345.6 133.412 345.57 133.132 345.55C132.872 345.51 132.642 345.49 132.442 345.49C131.862 345.49 131.302 345.57 130.762 345.73C130.222 345.87 129.732 346.1 129.292 346.42C128.872 346.74 128.532 347.17 128.272 347.71C128.032 348.23 127.912 348.88 127.912 349.66V358H123.442V341.62H126.832L127.492 344.38H127.702C128.022 343.82 128.422 343.31 128.902 342.85C129.382 342.39 129.932 342.02 130.552 341.74C131.192 341.46 131.872 341.32 132.592 341.32ZM143.199 341.29C145.399 341.29 147.079 341.77 148.239 342.73C149.419 343.67 150.009 345.12 150.009 347.08V358H146.889L146.019 355.78H145.899C145.439 356.36 144.959 356.84 144.459 357.22C143.979 357.6 143.419 357.87 142.779 358.03C142.159 358.21 141.389 358.3 140.469 358.3C139.509 358.3 138.639 358.12 137.859 357.76C137.099 357.38 136.499 356.81 136.059 356.05C135.619 355.27 135.399 354.29 135.399 353.11C135.399 351.37 136.009 350.09 137.229 349.27C138.449 348.43 140.279 347.97 142.719 347.89L145.569 347.8V347.08C145.569 346.22 145.339 345.59 144.879 345.19C144.439 344.79 143.819 344.59 143.019 344.59C142.219 344.59 141.439 344.71 140.679 344.95C139.919 345.17 139.159 345.45 138.399 345.79L136.929 342.76C137.809 342.3 138.779 341.94 139.839 341.68C140.919 341.42 142.039 341.29 143.199 341.29ZM143.829 350.47C142.389 350.51 141.389 350.77 140.829 351.25C140.269 351.73 139.989 352.36 139.989 353.14C139.989 353.82 140.189 354.31 140.589 354.61C140.989 354.89 141.509 355.03 142.149 355.03C143.109 355.03 143.919 354.75 144.579 354.19C145.239 353.61 145.569 352.8 145.569 351.76V350.41L143.829 350.47ZM166.014 353.14C166.014 354.24 165.754 355.18 165.234 355.96C164.714 356.72 163.934 357.3 162.894 357.7C161.854 358.1 160.564 358.3 159.024 358.3C157.884 358.3 156.904 358.22 156.084 358.06C155.264 357.92 154.444 357.68 153.624 357.34V353.65C154.504 354.05 155.454 354.38 156.474 354.64C157.494 354.9 158.394 355.03 159.174 355.03C160.054 355.03 160.674 354.9 161.034 354.64C161.414 354.38 161.604 354.04 161.604 353.62C161.604 353.34 161.524 353.09 161.364 352.87C161.224 352.65 160.904 352.4 160.404 352.12C159.904 351.84 159.124 351.48 158.064 351.04C157.044 350.6 156.204 350.17 155.544 349.75C154.884 349.31 154.394 348.79 154.074 348.19C153.754 347.57 153.594 346.8 153.594 345.88C153.594 344.36 154.184 343.22 155.364 342.46C156.544 341.7 158.114 341.32 160.074 341.32C161.094 341.32 162.064 341.42 162.984 341.62C163.904 341.82 164.854 342.15 165.834 342.61L164.484 345.82C163.944 345.58 163.424 345.37 162.924 345.19C162.424 345.01 161.934 344.87 161.454 344.77C160.994 344.67 160.514 344.62 160.014 344.62C159.354 344.62 158.854 344.71 158.514 344.89C158.194 345.07 158.034 345.34 158.034 345.7C158.034 345.96 158.114 346.2 158.274 346.42C158.454 346.62 158.784 346.84 159.264 347.08C159.764 347.32 160.494 347.64 161.454 348.04C162.394 348.42 163.204 348.82 163.884 349.24C164.564 349.64 165.084 350.15 165.444 350.77C165.824 351.37 166.014 352.16 166.014 353.14ZM173.966 339.85C173.966 340.65 173.936 341.42 173.876 342.16C173.836 342.9 173.796 343.42 173.756 343.72H173.996C174.356 343.16 174.776 342.71 175.256 342.37C175.736 342.01 176.266 341.75 176.846 341.59C177.446 341.41 178.076 341.32 178.736 341.32C179.916 341.32 180.946 341.53 181.826 341.95C182.706 342.37 183.386 343.02 183.866 343.9C184.366 344.78 184.616 345.92 184.616 347.32V358H180.146V348.43C180.146 347.25 179.926 346.37 179.486 345.79C179.066 345.19 178.406 344.89 177.506 344.89C176.606 344.89 175.896 345.1 175.376 345.52C174.876 345.94 174.516 346.55 174.296 347.35C174.076 348.15 173.966 349.13 173.966 350.29V358H169.496V335.2H173.966V339.85ZM198.363 341.32C198.583 341.32 198.843 341.33 199.143 341.35C199.443 341.37 199.683 341.4 199.863 341.44L199.533 345.64C199.393 345.6 199.183 345.57 198.903 345.55C198.643 345.51 198.413 345.49 198.213 345.49C197.633 345.49 197.073 345.57 196.533 345.73C195.993 345.87 195.503 346.1 195.063 346.42C194.643 346.74 194.303 347.17 194.043 347.71C193.803 348.23 193.683 348.88 193.683 349.66V358H189.213V341.62H192.603L193.263 344.38H193.473C193.793 343.82 194.193 343.31 194.673 342.85C195.153 342.39 195.703 342.02 196.323 341.74C196.963 341.46 197.643 341.32 198.363 341.32ZM200.496 341.62H205.386L208.476 350.83C208.576 351.13 208.656 351.43 208.716 351.73C208.796 352.03 208.856 352.34 208.896 352.66C208.956 352.98 208.996 353.32 209.016 353.68H209.106C209.166 353.16 209.246 352.67 209.346 352.21C209.466 351.73 209.596 351.27 209.736 350.83L212.766 341.62H217.566L210.636 360.1C210.216 361.22 209.666 362.16 208.986 362.92C208.326 363.68 207.556 364.25 206.676 364.63C205.796 365.01 204.836 365.2 203.796 365.2C203.296 365.2 202.856 365.17 202.476 365.11C202.116 365.07 201.796 365.02 201.516 364.96V361.42C201.736 361.46 201.996 361.5 202.296 361.54C202.616 361.58 202.946 361.6 203.286 361.6C203.906 361.6 204.436 361.47 204.876 361.21C205.336 360.95 205.716 360.59 206.016 360.13C206.316 359.69 206.556 359.21 206.736 358.69L207.006 357.88L200.496 341.62ZM226.816 354.73C227.316 354.73 227.796 354.68 228.256 354.58C228.716 354.48 229.176 354.36 229.636 354.22V357.55C229.156 357.75 228.556 357.92 227.836 358.06C227.136 358.22 226.366 358.3 225.526 358.3C224.546 358.3 223.666 358.14 222.886 357.82C222.126 357.5 221.516 356.95 221.056 356.17C220.616 355.37 220.396 354.27 220.396 352.87V344.98H218.266V343.09L220.726 341.59L222.016 338.14H224.866V341.62H229.456V344.98H224.866V352.87C224.866 353.49 225.046 353.96 225.406 354.28C225.766 354.58 226.236 354.73 226.816 354.73ZM237.394 341.62V358H232.924V341.62H237.394ZM235.174 335.2C235.834 335.2 236.404 335.36 236.884 335.68C237.364 335.98 237.604 336.55 237.604 337.39C237.604 338.21 237.364 338.78 236.884 339.1C236.404 339.42 235.834 339.58 235.174 339.58C234.494 339.58 233.914 339.42 233.434 339.1C232.974 338.78 232.744 338.21 232.744 337.39C232.744 336.55 232.974 335.98 233.434 335.68C233.914 335.36 234.494 335.2 235.174 335.2ZM248.725 358.3C247.105 358.3 245.725 358.01 244.585 357.43C243.445 356.83 242.575 355.91 241.975 354.67C241.375 353.43 241.075 351.84 241.075 349.9C241.075 347.9 241.415 346.27 242.095 345.01C242.775 343.75 243.715 342.82 244.915 342.22C246.135 341.62 247.535 341.32 249.115 341.32C250.235 341.32 251.205 341.43 252.025 341.65C252.865 341.87 253.595 342.13 254.215 342.43L252.895 345.88C252.195 345.6 251.535 345.37 250.915 345.19C250.315 345.01 249.715 344.92 249.115 344.92C248.335 344.92 247.685 345.11 247.165 345.49C246.645 345.85 246.255 346.4 245.995 347.14C245.755 347.86 245.635 348.77 245.635 349.87C245.635 350.95 245.765 351.85 246.025 352.57C246.305 353.27 246.705 353.8 247.225 354.16C247.745 354.5 248.375 354.67 249.115 354.67C250.055 354.67 250.885 354.55 251.605 354.31C252.325 354.05 253.025 353.7 253.705 353.26V357.07C253.025 357.51 252.305 357.82 251.545 358C250.805 358.2 249.865 358.3 248.725 358.3ZM268.905 353.14C268.905 354.24 268.645 355.18 268.125 355.96C267.605 356.72 266.825 357.3 265.785 357.7C264.745 358.1 263.455 358.3 261.915 358.3C260.775 358.3 259.795 358.22 258.975 358.06C258.155 357.92 257.335 357.68 256.515 357.34V353.65C257.395 354.05 258.345 354.38 259.365 354.64C260.385 354.9 261.285 355.03 262.065 355.03C262.945 355.03 263.565 354.9 263.925 354.64C264.305 354.38 264.495 354.04 264.495 353.62C264.495 353.34 264.415 353.09 264.255 352.87C264.115 352.65 263.795 352.4 263.295 352.12C262.795 351.84 262.015 351.48 260.955 351.04C259.935 350.6 259.095 350.17 258.435 349.75C257.775 349.31 257.285 348.79 256.965 348.19C256.645 347.57 256.485 346.8 256.485 345.88C256.485 344.36 257.075 343.22 258.255 342.46C259.435 341.7 261.005 341.32 262.965 341.32C263.985 341.32 264.955 341.42 265.875 341.62C266.795 341.82 267.745 342.15 268.725 342.61L267.375 345.82C266.835 345.58 266.315 345.37 265.815 345.19C265.315 345.01 264.825 344.87 264.345 344.77C263.885 344.67 263.405 344.62 262.905 344.62C262.245 344.62 261.745 344.71 261.405 344.89C261.085 345.07 260.925 345.34 260.925 345.7C260.925 345.96 261.005 346.2 261.165 346.42C261.345 346.62 261.675 346.84 262.155 347.08C262.655 347.32 263.385 347.64 264.345 348.04C265.285 348.42 266.095 348.82 266.775 349.24C267.455 349.64 267.975 350.15 268.335 350.77C268.715 351.37 268.905 352.16 268.905 353.14Z" fill="white"/>
<g filter="url(#filter1_d_248_11613)">
<circle cx="186" cy="174" r="125" fill="white"/>
</g>
<g clip-path="url(#clip0_248_11613)">
<path d="M201.97 154.029L187.842 167.185L174.727 140.719L181.502 125.503C183.214 122.467 186.015 122.427 187.727 125.503L201.97 154.029Z" fill="#FFA000"/>
<path d="M187.85 167.178L135 216.334L174.735 140.719L187.85 167.178Z" fill="#F57F17"/>
<path d="M217.465 133.911C219.996 131.5 222.602 132.314 223.261 135.738L237 215.672L191.429 243.03C189.831 243.924 185.593 244.273 185.593 244.273C185.593 244.273 181.739 243.803 180.261 242.99L135 216.336L217.465 133.911Z" fill="#FFCA28"/>
<path d="M174.735 140.72L135 216.335L152.708 105.813C153.373 102.388 155.314 102.039 157.067 105.074L174.735 140.72Z" fill="#FFA000"/>
</g>
<circle cx="227" cy="217.4" r="26" fill="#6A6A6A"/>
<path d="M224 205.4C224 204.296 224.895 203.4 226 203.4H228C229.105 203.4 230 204.296 230 205.4V211.4H226C224.895 211.4 224 210.505 224 209.4V205.4Z" fill="white"/>
<rect x="214.809" y="209.326" width="6.39209" height="8" rx="2" transform="rotate(-42.524 214.809 209.326)" fill="white"/>
<rect x="213" y="220.4" width="6" height="8" rx="2" transform="rotate(-90 213 220.4)" fill="white"/>
<rect x="219.242" y="229.299" width="6" height="8" rx="2" transform="rotate(-135 219.242 229.299)" fill="white"/>
<rect x="230" y="231.4" width="6" height="8" rx="2" transform="rotate(180 230 231.4)" fill="white"/>
<path d="M237.484 223.642C238.265 224.423 238.265 225.69 237.484 226.471L235.794 228.161C235.013 228.942 233.747 228.942 232.966 228.161L228.723 223.918L233.242 219.4L237.484 223.642Z" fill="white"/>
<circle cx="227" cy="217.4" r="8" fill="white"/>
<circle cx="227" cy="217.4" r="6" fill="#6A6A6A"/>
<circle cx="227" cy="217.4" r="2" fill="white"/>
<rect x="238.57" y="207.4" width="12" height="13" transform="rotate(41.2426 238.57 207.4)" fill="#6A6A6A"/>
<rect x="230" y="205.4" width="13" height="13" fill="#6A6A6A"/>
</g>
<defs>
<filter id="filter0_d_248_11613" x="0" y="0" width="380" height="425.294" filterUnits="userSpaceOnUse" color-interpolation-filters="sRGB">
<feFlood flood-opacity="0" result="BackgroundImageFix"/>
<feColorMatrix in="SourceAlpha" type="matrix" values="0 0 0 0 0 0 0 0 0 0 0 0 0 0 0 0 0 0 127 0" result="hardAlpha"/>
<feOffset dx="4" dy="4"/>
<feGaussianBlur stdDeviation="7.5"/>
<feComposite in2="hardAlpha" operator="out"/>
<feColorMatrix type="matrix" values="0 0 0 0 0 0 0 0 0 0 0 0 0 0 0 0 0 0 0.12 0"/>
<feBlend mode="normal" in2="BackgroundImageFix" result="effect1_dropShadow_248_11613"/>
<feBlend mode="normal" in="SourceGraphic" in2="effect1_dropShadow_248_11613" result="shape"/>
</filter>
<filter id="filter1_d_248_11613" x="49" y="37" width="274" height="274" filterUnits="userSpaceOnUse" color-interpolation-filters="sRGB">
<feFlood flood-opacity="0" result="BackgroundImageFix"/>
<feColorMatrix in="SourceAlpha" type="matrix" values="0 0 0 0 0 0 0 0 0 0 0 0 0 0 0 0 0 0 127 0" result="hardAlpha"/>
<feMorphology radius="2" operator="dilate" in="SourceAlpha" result="effect1_dropShadow_248_11613"/>
<feOffset/>
<feGaussianBlur stdDeviation="5"/>
<feComposite in2="hardAlpha" operator="out"/>
<feColorMatrix type="matrix" values="0 0 0 0 0 0 0 0 0 0 0 0 0 0 0 0 0 0 0.12 0"/>
<feBlend mode="normal" in2="BackgroundImageFix" result="effect1_dropShadow_248_11613"/>
<feBlend mode="normal" in="SourceGraphic" in2="effect1_dropShadow_248_11613" result="shape"/>
</filter>
<clipPath id="clip0_248_11613">
<rect width="102" height="141.277" fill="white" transform="translate(135 103)"/>
</clipPath>
</defs>
</svg>
