<svg width="455" height="510" viewBox="0 0 455 510" fill="none" xmlns="http://www.w3.org/2000/svg">
<g filter="url(#filter0_d_765_28673)">
<rect x="11" y="11" width="425" height="480" rx="30" fill="#76357A"/>
<g filter="url(#filter1_d_765_28673)">
<circle cx="224" cy="209" r="160" fill="white"/>
</g>
<g clip-path="url(#clip0_765_28673)">
<g clip-path="url(#clip1_765_28673)">
<path d="M239.97 184.629L225.842 197.784L212.727 171.319L219.502 156.102C221.214 153.067 224.015 153.027 225.727 156.102L239.97 184.629Z" fill="#FFA000"/>
<path d="M225.85 197.778L173 246.934L212.735 171.318L225.85 197.778Z" fill="#F57F17"/>
<path d="M255.465 164.511C257.996 162.1 260.602 162.913 261.261 166.338L275 246.271L229.429 273.63C227.831 274.523 223.593 274.873 223.593 274.873C223.593 274.873 219.739 274.403 218.261 273.59L173 246.936L255.465 164.511Z" fill="#FFCA28"/>
<path d="M212.735 171.319L173 246.935L190.708 136.413C191.373 132.988 193.314 132.638 195.067 135.674L212.735 171.319Z" fill="#FFA000"/>
</g>
<circle cx="265" cy="248" r="26" fill="#6A6A6A"/>
<path d="M262 236C262 234.895 262.895 234 264 234H266C267.105 234 268 234.895 268 236V242H264C262.895 242 262 241.105 262 240V236Z" fill="white"/>
<rect x="252.805" y="239.926" width="6.39209" height="8" rx="2" transform="rotate(-42.524 252.805 239.926)" fill="white"/>
<rect x="251" y="251" width="6" height="8" rx="2" transform="rotate(-90 251 251)" fill="white"/>
<rect x="257.242" y="259.898" width="6" height="8" rx="2" transform="rotate(-135 257.242 259.898)" fill="white"/>
<rect x="268" y="262" width="6" height="8" rx="2" transform="rotate(180 268 262)" fill="white"/>
<path d="M275.484 254.242C276.265 255.023 276.265 256.289 275.484 257.07L273.794 258.76C273.013 259.541 271.747 259.541 270.966 258.76L266.723 254.518L271.242 249.999L275.484 254.242Z" fill="white"/>
<circle cx="265" cy="248" r="8" fill="white"/>
<circle cx="265" cy="248" r="6" fill="#6A6A6A"/>
<circle cx="265" cy="248" r="2" fill="white"/>
<rect x="276.57" y="238" width="12" height="13" transform="rotate(41.2426 276.57 238)" fill="#6A6A6A"/>
<rect x="268" y="236" width="13" height="13" fill="#6A6A6A"/>
</g>
<path d="M128.72 419.08C127.573 419.08 126.547 419.307 125.64 419.76C124.76 420.213 124.013 420.867 123.4 421.72C122.787 422.547 122.32 423.56 122 424.76C121.707 425.96 121.56 427.307 121.56 428.8C121.56 430.827 121.8 432.56 122.28 434C122.787 435.413 123.573 436.493 124.64 437.24C125.707 437.987 127.067 438.36 128.72 438.36C129.893 438.36 131.053 438.227 132.2 437.96C133.373 437.693 134.64 437.32 136 436.84V441.92C134.747 442.427 133.507 442.8 132.28 443.04C131.053 443.28 129.68 443.4 128.16 443.4C125.227 443.4 122.8 442.8 120.88 441.6C118.987 440.373 117.587 438.667 116.68 436.48C115.773 434.267 115.32 431.693 115.32 428.76C115.32 426.6 115.613 424.627 116.2 422.84C116.787 421.027 117.64 419.467 118.76 418.16C119.907 416.853 121.307 415.84 122.96 415.12C124.64 414.4 126.56 414.04 128.72 414.04C130.133 414.04 131.547 414.227 132.96 414.6C134.4 414.947 135.773 415.427 137.08 416.04L135.12 420.96C134.053 420.453 132.973 420.013 131.88 419.64C130.813 419.267 129.76 419.08 128.72 419.08ZM153.789 420.76C154.082 420.76 154.429 420.773 154.829 420.8C155.229 420.827 155.549 420.867 155.789 420.92L155.349 426.52C155.162 426.467 154.882 426.427 154.509 426.4C154.162 426.347 153.855 426.32 153.589 426.32C152.815 426.32 152.069 426.427 151.349 426.64C150.629 426.827 149.975 427.133 149.389 427.56C148.829 427.987 148.375 428.56 148.029 429.28C147.709 429.973 147.549 430.84 147.549 431.88V443H141.589V421.16H146.109L146.989 424.84H147.269C147.695 424.093 148.229 423.413 148.869 422.8C149.509 422.187 150.242 421.693 151.069 421.32C151.922 420.947 152.829 420.76 153.789 420.76ZM167.932 420.72C170.865 420.72 173.105 421.36 174.652 422.64C176.225 423.893 177.012 425.827 177.012 428.44V443H172.852L171.692 440.04H171.532C170.918 440.813 170.278 441.453 169.612 441.96C168.972 442.467 168.225 442.827 167.372 443.04C166.545 443.28 165.518 443.4 164.292 443.4C163.012 443.4 161.852 443.16 160.812 442.68C159.798 442.173 158.998 441.413 158.412 440.4C157.825 439.36 157.532 438.053 157.532 436.48C157.532 434.16 158.345 432.453 159.972 431.36C161.598 430.24 164.038 429.627 167.292 429.52L171.092 429.4V428.44C171.092 427.293 170.785 426.453 170.172 425.92C169.585 425.387 168.758 425.12 167.692 425.12C166.625 425.12 165.585 425.28 164.572 425.6C163.558 425.893 162.545 426.267 161.532 426.72L159.572 422.68C160.745 422.067 162.038 421.587 163.452 421.24C164.892 420.893 166.385 420.72 167.932 420.72ZM168.772 432.96C166.852 433.013 165.518 433.36 164.772 434C164.025 434.64 163.652 435.48 163.652 436.52C163.652 437.427 163.918 438.08 164.452 438.48C164.985 438.853 165.678 439.04 166.532 439.04C167.812 439.04 168.892 438.667 169.772 437.92C170.652 437.147 171.092 436.067 171.092 434.68V432.88L168.772 432.96ZM198.352 436.52C198.352 437.987 198.006 439.24 197.312 440.28C196.619 441.293 195.579 442.067 194.192 442.6C192.806 443.133 191.086 443.4 189.032 443.4C187.512 443.4 186.206 443.293 185.112 443.08C184.019 442.893 182.926 442.573 181.832 442.12V437.2C183.006 437.733 184.272 438.173 185.632 438.52C186.992 438.867 188.192 439.04 189.232 439.04C190.406 439.04 191.232 438.867 191.712 438.52C192.219 438.173 192.472 437.72 192.472 437.16C192.472 436.787 192.366 436.453 192.152 436.16C191.966 435.867 191.539 435.533 190.872 435.16C190.206 434.787 189.166 434.307 187.752 433.72C186.392 433.133 185.272 432.56 184.392 432C183.512 431.413 182.859 430.72 182.432 429.92C182.006 429.093 181.792 428.067 181.792 426.84C181.792 424.813 182.579 423.293 184.152 422.28C185.726 421.267 187.819 420.76 190.432 420.76C191.792 420.76 193.086 420.893 194.312 421.16C195.539 421.427 196.806 421.867 198.112 422.48L196.312 426.76C195.592 426.44 194.899 426.16 194.232 425.92C193.566 425.68 192.912 425.493 192.272 425.36C191.659 425.227 191.019 425.16 190.352 425.16C189.472 425.16 188.806 425.28 188.352 425.52C187.926 425.76 187.712 426.12 187.712 426.6C187.712 426.947 187.819 427.267 188.032 427.56C188.272 427.827 188.712 428.12 189.352 428.44C190.019 428.76 190.992 429.187 192.272 429.72C193.526 430.227 194.606 430.76 195.512 431.32C196.419 431.853 197.112 432.533 197.592 433.36C198.099 434.16 198.352 435.213 198.352 436.52ZM208.955 418.8C208.955 419.867 208.915 420.893 208.835 421.88C208.782 422.867 208.728 423.56 208.675 423.96H208.995C209.475 423.213 210.035 422.613 210.675 422.16C211.315 421.68 212.022 421.333 212.795 421.12C213.595 420.88 214.435 420.76 215.315 420.76C216.888 420.76 218.262 421.04 219.435 421.6C220.608 422.16 221.515 423.027 222.155 424.2C222.822 425.373 223.155 426.893 223.155 428.76V443H217.195V430.24C217.195 428.667 216.902 427.493 216.315 426.72C215.755 425.92 214.875 425.52 213.675 425.52C212.475 425.52 211.528 425.8 210.835 426.36C210.168 426.92 209.688 427.733 209.395 428.8C209.102 429.867 208.955 431.173 208.955 432.72V443H202.995V412.6H208.955V418.8ZM241.484 420.76C241.777 420.76 242.124 420.773 242.524 420.8C242.924 420.827 243.244 420.867 243.484 420.92L243.044 426.52C242.857 426.467 242.577 426.427 242.204 426.4C241.857 426.347 241.551 426.32 241.284 426.32C240.511 426.32 239.764 426.427 239.044 426.64C238.324 426.827 237.671 427.133 237.084 427.56C236.524 427.987 236.071 428.56 235.724 429.28C235.404 429.973 235.244 430.84 235.244 431.88V443H229.284V421.16H233.804L234.684 424.84H234.964C235.391 424.093 235.924 423.413 236.564 422.8C237.204 422.187 237.937 421.693 238.764 421.32C239.617 420.947 240.524 420.76 241.484 420.76ZM244.328 421.16H250.848L254.968 433.44C255.101 433.84 255.208 434.24 255.288 434.64C255.395 435.04 255.475 435.453 255.528 435.88C255.608 436.307 255.661 436.76 255.688 437.24H255.808C255.888 436.547 255.995 435.893 256.128 435.28C256.288 434.64 256.461 434.027 256.648 433.44L260.688 421.16H267.088L257.848 445.8C257.288 447.293 256.555 448.547 255.648 449.56C254.768 450.573 253.741 451.333 252.568 451.84C251.395 452.347 250.115 452.6 248.728 452.6C248.061 452.6 247.475 452.56 246.968 452.48C246.488 452.427 246.061 452.36 245.688 452.28V447.56C245.981 447.613 246.328 447.667 246.728 447.72C247.155 447.773 247.595 447.8 248.048 447.8C248.875 447.8 249.581 447.627 250.168 447.28C250.781 446.933 251.288 446.453 251.688 445.84C252.088 445.253 252.408 444.613 252.648 443.92L253.008 442.84L244.328 421.16ZM279.422 438.64C280.088 438.64 280.728 438.573 281.342 438.44C281.955 438.307 282.568 438.147 283.182 437.96V442.4C282.542 442.667 281.742 442.893 280.782 443.08C279.848 443.293 278.822 443.4 277.702 443.4C276.395 443.4 275.222 443.187 274.182 442.76C273.168 442.333 272.355 441.6 271.742 440.56C271.155 439.493 270.862 438.027 270.862 436.16V425.64H268.022V423.12L271.302 421.12L273.022 416.52H276.822V421.16H282.942V425.64H276.822V436.16C276.822 436.987 277.062 437.613 277.542 438.04C278.022 438.44 278.648 438.64 279.422 438.64ZM293.525 421.16V443H287.565V421.16H293.525ZM290.565 412.6C291.445 412.6 292.205 412.813 292.845 413.24C293.485 413.64 293.805 414.4 293.805 415.52C293.805 416.613 293.485 417.373 292.845 417.8C292.205 418.227 291.445 418.44 290.565 418.44C289.659 418.44 288.885 418.227 288.245 417.8C287.632 417.373 287.325 416.613 287.325 415.52C287.325 414.4 287.632 413.64 288.245 413.24C288.885 412.813 289.659 412.6 290.565 412.6ZM308.633 443.4C306.473 443.4 304.633 443.013 303.113 442.24C301.593 441.44 300.433 440.213 299.633 438.56C298.833 436.907 298.433 434.787 298.433 432.2C298.433 429.533 298.886 427.36 299.793 425.68C300.699 424 301.953 422.76 303.553 421.96C305.179 421.16 307.046 420.76 309.153 420.76C310.646 420.76 311.939 420.907 313.033 421.2C314.153 421.493 315.126 421.84 315.953 422.24L314.193 426.84C313.259 426.467 312.379 426.16 311.553 425.92C310.753 425.68 309.953 425.56 309.153 425.56C308.113 425.56 307.246 425.813 306.553 426.32C305.859 426.8 305.339 427.533 304.993 428.52C304.673 429.48 304.513 430.693 304.513 432.16C304.513 433.6 304.686 434.8 305.033 435.76C305.406 436.693 305.939 437.4 306.633 437.88C307.326 438.333 308.166 438.56 309.153 438.56C310.406 438.56 311.513 438.4 312.473 438.08C313.433 437.733 314.366 437.267 315.273 436.68V441.76C314.366 442.347 313.406 442.76 312.393 443C311.406 443.267 310.153 443.4 308.633 443.4ZM335.54 436.52C335.54 437.987 335.193 439.24 334.5 440.28C333.806 441.293 332.766 442.067 331.38 442.6C329.993 443.133 328.273 443.4 326.22 443.4C324.7 443.4 323.393 443.293 322.3 443.08C321.206 442.893 320.113 442.573 319.02 442.12V437.2C320.193 437.733 321.46 438.173 322.82 438.52C324.18 438.867 325.38 439.04 326.42 439.04C327.593 439.04 328.42 438.867 328.9 438.52C329.406 438.173 329.66 437.72 329.66 437.16C329.66 436.787 329.553 436.453 329.34 436.16C329.153 435.867 328.726 435.533 328.06 435.16C327.393 434.787 326.353 434.307 324.94 433.72C323.58 433.133 322.46 432.56 321.58 432C320.7 431.413 320.046 430.72 319.62 429.92C319.193 429.093 318.98 428.067 318.98 426.84C318.98 424.813 319.766 423.293 321.34 422.28C322.913 421.267 325.006 420.76 327.62 420.76C328.98 420.76 330.273 420.893 331.5 421.16C332.726 421.427 333.993 421.867 335.3 422.48L333.5 426.76C332.78 426.44 332.086 426.16 331.42 425.92C330.753 425.68 330.1 425.493 329.46 425.36C328.846 425.227 328.206 425.16 327.54 425.16C326.66 425.16 325.993 425.28 325.54 425.52C325.113 425.76 324.9 426.12 324.9 426.6C324.9 426.947 325.006 427.267 325.22 427.56C325.46 427.827 325.9 428.12 326.54 428.44C327.206 428.76 328.18 429.187 329.46 429.72C330.713 430.227 331.793 430.76 332.7 431.32C333.606 431.853 334.3 432.533 334.78 433.36C335.286 434.16 335.54 435.213 335.54 436.52Z" fill="white"/>
</g>
<defs>
<filter id="filter0_d_765_28673" x="0" y="0" width="455" height="510" filterUnits="userSpaceOnUse" color-interpolation-filters="sRGB">
<feFlood flood-opacity="0" result="BackgroundImageFix"/>
<feColorMatrix in="SourceAlpha" type="matrix" values="0 0 0 0 0 0 0 0 0 0 0 0 0 0 0 0 0 0 127 0" result="hardAlpha"/>
<feOffset dx="4" dy="4"/>
<feGaussianBlur stdDeviation="7.5"/>
<feComposite in2="hardAlpha" operator="out"/>
<feColorMatrix type="matrix" values="0 0 0 0 0 0 0 0 0 0 0 0 0 0 0 0 0 0 0.12 0"/>
<feBlend mode="normal" in2="BackgroundImageFix" result="effect1_dropShadow_765_28673"/>
<feBlend mode="normal" in="SourceGraphic" in2="effect1_dropShadow_765_28673" result="shape"/>
</filter>
<filter id="filter1_d_765_28673" x="52" y="37" width="344" height="344" filterUnits="userSpaceOnUse" color-interpolation-filters="sRGB">
<feFlood flood-opacity="0" result="BackgroundImageFix"/>
<feColorMatrix in="SourceAlpha" type="matrix" values="0 0 0 0 0 0 0 0 0 0 0 0 0 0 0 0 0 0 127 0" result="hardAlpha"/>
<feMorphology radius="2" operator="dilate" in="SourceAlpha" result="effect1_dropShadow_765_28673"/>
<feOffset/>
<feGaussianBlur stdDeviation="5"/>
<feComposite in2="hardAlpha" operator="out"/>
<feColorMatrix type="matrix" values="0 0 0 0 0 0 0 0 0 0 0 0 0 0 0 0 0 0 0.12 0"/>
<feBlend mode="normal" in2="BackgroundImageFix" result="effect1_dropShadow_765_28673"/>
<feBlend mode="normal" in="SourceGraphic" in2="effect1_dropShadow_765_28673" result="shape"/>
</filter>
<clipPath id="clip0_765_28673">
<rect width="148" height="178" fill="white" transform="translate(150 116)"/>
</clipPath>
<clipPath id="clip1_765_28673">
<rect width="102" height="141.277" fill="white" transform="translate(173 133.6)"/>
</clipPath>
</defs>
</svg>
