<svg width="380" height="426" viewBox="0 0 380 426" fill="none" xmlns="http://www.w3.org/2000/svg">
<g filter="url(#filter0_d_248_11603)">
<rect x="11" y="11" width="350" height="395.294" rx="30" fill="#76357A"/>
<path d="M99.0542 359V336.8H112.734V340.49H103.494V346.28H111.384V350H103.494V359H99.0542ZM116.603 359V336.8H123.893C128.813 336.8 132.593 338.51 132.593 343.76C132.593 348.83 128.783 351.11 124.013 351.11H121.043V359H116.603ZM121.043 347.6H123.713C126.773 347.6 128.243 346.31 128.243 343.76C128.243 341.18 126.623 340.31 123.563 340.31H121.043V347.6ZM136.613 359V336.8H141.533L145.313 347.18C145.793 348.56 146.213 350.03 146.663 351.47H146.813C147.293 350.03 147.683 348.56 148.163 347.18L151.853 336.8H156.773V359H152.723V349.73C152.723 347.63 153.053 344.54 153.263 342.44H153.143L151.343 347.66L147.923 356.99H145.373L141.923 347.66L140.153 342.44H140.033C140.243 344.54 140.603 347.63 140.603 349.73V359H136.613ZM174.085 339.11V346.43H185.995V339.11H174.085ZM182.035 355.16H192.595V358.37H167.575V355.16H178.075V349.55H170.215V335.99H189.865V349.55H182.035V355.16ZM200.543 336.56V351.38C204.173 351.29 208.103 350.99 212.153 350.18L212.573 353.48C207.863 354.47 203.273 354.77 199.073 354.77H196.613V336.56H200.543ZM214.283 333.92H218.243V361.55H214.283V333.92ZM227.96 347.03V352.19C231.68 352.16 234.71 352.01 238.1 351.47L238.46 354.65C234.47 355.28 230.93 355.37 226.28 355.37H224.03V336.26H236.81V339.44H227.96V343.94H235.88V347.03H227.96ZM242 333.92H245.96V361.64H242V346.85H237.26V343.67H242V333.92ZM273.318 333.95V350.72H269.328V333.95H273.318ZM267.048 345.65L267.498 348.8C263.388 349.49 259.698 349.61 254.208 349.61H251.778V341.06H260.568V338.72H251.748V335.57H264.468V344H255.678V346.43C260.238 346.4 263.448 346.25 267.048 345.65ZM264.018 358.55C267.648 358.55 269.538 357.89 269.538 356.42C269.538 354.98 267.648 354.32 264.018 354.32C260.418 354.32 258.528 354.98 258.528 356.42C258.528 357.89 260.418 358.55 264.018 358.55ZM264.018 351.23C269.898 351.23 273.498 353.15 273.498 356.42C273.498 359.69 269.898 361.61 264.018 361.61C258.168 361.61 254.568 359.69 254.568 356.42C254.568 353.15 258.168 351.23 264.018 351.23Z" fill="white"/>
<g filter="url(#filter1_d_248_11603)">
<circle cx="186" cy="174" r="125" fill="white"/>
</g>
<g clip-path="url(#clip0_248_11603)">
<path d="M202.97 154.029L188.842 167.185L175.727 140.719L182.502 125.503C184.214 122.467 187.015 122.427 188.727 125.503L202.97 154.029Z" fill="#FFA000"/>
<path d="M188.85 167.178L136 216.334L175.735 140.719L188.85 167.178Z" fill="#F57F17"/>
<path d="M218.465 133.911C220.996 131.5 223.602 132.314 224.261 135.738L238 215.672L192.429 243.03C190.831 243.924 186.593 244.273 186.593 244.273C186.593 244.273 182.739 243.803 181.261 242.99L136 216.336L218.465 133.911Z" fill="#FFCA28"/>
<path d="M175.735 140.72L136 216.335L153.708 105.813C154.373 102.388 156.314 102.039 158.067 105.074L175.735 140.72Z" fill="#FFA000"/>
</g>
</g>
<defs>
<filter id="filter0_d_248_11603" x="0" y="0" width="380" height="425.294" filterUnits="userSpaceOnUse" color-interpolation-filters="sRGB">
<feFlood flood-opacity="0" result="BackgroundImageFix"/>
<feColorMatrix in="SourceAlpha" type="matrix" values="0 0 0 0 0 0 0 0 0 0 0 0 0 0 0 0 0 0 127 0" result="hardAlpha"/>
<feOffset dx="4" dy="4"/>
<feGaussianBlur stdDeviation="7.5"/>
<feComposite in2="hardAlpha" operator="out"/>
<feColorMatrix type="matrix" values="0 0 0 0 0 0 0 0 0 0 0 0 0 0 0 0 0 0 0.12 0"/>
<feBlend mode="normal" in2="BackgroundImageFix" result="effect1_dropShadow_248_11603"/>
<feBlend mode="normal" in="SourceGraphic" in2="effect1_dropShadow_248_11603" result="shape"/>
</filter>
<filter id="filter1_d_248_11603" x="49" y="37" width="274" height="274" filterUnits="userSpaceOnUse" color-interpolation-filters="sRGB">
<feFlood flood-opacity="0" result="BackgroundImageFix"/>
<feColorMatrix in="SourceAlpha" type="matrix" values="0 0 0 0 0 0 0 0 0 0 0 0 0 0 0 0 0 0 127 0" result="hardAlpha"/>
<feMorphology radius="2" operator="dilate" in="SourceAlpha" result="effect1_dropShadow_248_11603"/>
<feOffset/>
<feGaussianBlur stdDeviation="5"/>
<feComposite in2="hardAlpha" operator="out"/>
<feColorMatrix type="matrix" values="0 0 0 0 0 0 0 0 0 0 0 0 0 0 0 0 0 0 0.12 0"/>
<feBlend mode="normal" in2="BackgroundImageFix" result="effect1_dropShadow_248_11603"/>
<feBlend mode="normal" in="SourceGraphic" in2="effect1_dropShadow_248_11603" result="shape"/>
</filter>
<clipPath id="clip0_248_11603">
<rect width="102" height="141.277" fill="white" transform="translate(136 103)"/>
</clipPath>
</defs>
</svg>
