<svg width="455" height="510" viewBox="0 0 455 510" fill="none" xmlns="http://www.w3.org/2000/svg">
<g filter="url(#filter0_d_765_28765)">
<rect x="11" y="11" width="425" height="480" rx="30" fill="#76357A"/>
<g filter="url(#filter1_d_765_28765)">
<circle cx="224" cy="209" r="160" fill="white"/>
</g>
<g clip-path="url(#clip0_765_28765)">
<g clip-path="url(#clip1_765_28765)">
<path d="M239.97 184.629L225.842 197.784L212.727 171.319L219.502 156.102C221.214 153.067 224.015 153.027 225.727 156.102L239.97 184.629Z" fill="#FFA000"/>
<path d="M225.85 197.778L173 246.934L212.735 171.318L225.85 197.778Z" fill="#F57F17"/>
<path d="M255.465 164.511C257.996 162.1 260.602 162.913 261.261 166.338L275 246.271L229.429 273.63C227.831 274.523 223.593 274.873 223.593 274.873C223.593 274.873 219.739 274.403 218.261 273.59L173 246.936L255.465 164.511Z" fill="#FFCA28"/>
<path d="M212.735 171.319L173 246.935L190.708 136.413C191.373 132.988 193.314 132.638 195.067 135.674L212.735 171.319Z" fill="#FFA000"/>
</g>
</g>
<path d="M106.906 444V414.4H125.146V419.32H112.826V427.04H123.346V432H112.826V444H106.906ZM130.304 444V414.4H140.024C146.584 414.4 151.624 416.68 151.624 423.68C151.624 430.44 146.544 433.48 140.184 433.48H136.224V444H130.304ZM136.224 428.8H139.784C143.864 428.8 145.824 427.08 145.824 423.68C145.824 420.24 143.664 419.08 139.584 419.08H136.224V428.8ZM156.984 444V414.4H163.544L168.584 428.24C169.224 430.08 169.784 432.04 170.384 433.96H170.584C171.224 432.04 171.744 430.08 172.384 428.24L177.304 414.4H183.864V444H178.464V431.64C178.464 428.84 178.904 424.72 179.184 421.92H179.024L176.624 428.88L172.064 441.32H168.664L164.064 428.88L161.704 421.92H161.544C161.824 424.72 162.304 428.84 162.304 431.64V444H156.984ZM206.947 417.48V427.24H222.827V417.48H206.947ZM217.547 438.88H231.627V443.16H198.267V438.88H212.267V431.4H201.787V413.32H227.987V431.4H217.547V438.88ZM242.224 414.08V433.84C247.064 433.72 252.304 433.32 257.704 432.24L258.264 436.64C251.984 437.96 245.864 438.36 240.264 438.36H236.984V414.08H242.224ZM260.544 410.56H265.824V447.4H260.544V410.56ZM278.781 428.04V434.92C283.741 434.88 287.781 434.68 292.301 433.96L292.781 438.2C287.461 439.04 282.741 439.16 276.541 439.16H273.541V413.68H290.581V417.92H278.781V423.92H289.341V428.04H278.781ZM297.501 410.56H302.781V447.52H297.501V427.8H291.181V423.56H297.501V410.56ZM339.258 410.6V432.96H333.938V410.6H339.258ZM330.898 426.2L331.498 430.4C326.018 431.32 321.098 431.48 313.778 431.48H310.538V420.08H322.258V416.96H310.498V412.76H327.458V424H315.738V427.24C321.818 427.2 326.098 427 330.898 426.2ZM326.858 443.4C331.698 443.4 334.218 442.52 334.218 440.56C334.218 438.64 331.698 437.76 326.858 437.76C322.058 437.76 319.538 438.64 319.538 440.56C319.538 442.52 322.058 443.4 326.858 443.4ZM326.858 433.64C334.698 433.64 339.498 436.2 339.498 440.56C339.498 444.92 334.698 447.48 326.858 447.48C319.058 447.48 314.258 444.92 314.258 440.56C314.258 436.2 319.058 433.64 326.858 433.64Z" fill="white"/>
</g>
<defs>
<filter id="filter0_d_765_28765" x="0" y="0" width="455" height="510" filterUnits="userSpaceOnUse" color-interpolation-filters="sRGB">
<feFlood flood-opacity="0" result="BackgroundImageFix"/>
<feColorMatrix in="SourceAlpha" type="matrix" values="0 0 0 0 0 0 0 0 0 0 0 0 0 0 0 0 0 0 127 0" result="hardAlpha"/>
<feOffset dx="4" dy="4"/>
<feGaussianBlur stdDeviation="7.5"/>
<feComposite in2="hardAlpha" operator="out"/>
<feColorMatrix type="matrix" values="0 0 0 0 0 0 0 0 0 0 0 0 0 0 0 0 0 0 0.12 0"/>
<feBlend mode="normal" in2="BackgroundImageFix" result="effect1_dropShadow_765_28765"/>
<feBlend mode="normal" in="SourceGraphic" in2="effect1_dropShadow_765_28765" result="shape"/>
</filter>
<filter id="filter1_d_765_28765" x="52" y="37" width="344" height="344" filterUnits="userSpaceOnUse" color-interpolation-filters="sRGB">
<feFlood flood-opacity="0" result="BackgroundImageFix"/>
<feColorMatrix in="SourceAlpha" type="matrix" values="0 0 0 0 0 0 0 0 0 0 0 0 0 0 0 0 0 0 127 0" result="hardAlpha"/>
<feMorphology radius="2" operator="dilate" in="SourceAlpha" result="effect1_dropShadow_765_28765"/>
<feOffset/>
<feGaussianBlur stdDeviation="5"/>
<feComposite in2="hardAlpha" operator="out"/>
<feColorMatrix type="matrix" values="0 0 0 0 0 0 0 0 0 0 0 0 0 0 0 0 0 0 0.12 0"/>
<feBlend mode="normal" in2="BackgroundImageFix" result="effect1_dropShadow_765_28765"/>
<feBlend mode="normal" in="SourceGraphic" in2="effect1_dropShadow_765_28765" result="shape"/>
</filter>
<clipPath id="clip0_765_28765">
<rect width="148" height="178" fill="white" transform="translate(150 116)"/>
</clipPath>
<clipPath id="clip1_765_28765">
<rect width="102" height="141.277" fill="white" transform="translate(173 133.6)"/>
</clipPath>
</defs>
</svg>
