<svg width="86" height="85" viewBox="0 0 86 85" fill="none" xmlns="http://www.w3.org/2000/svg">
<path d="M12.7713 84.0928C9.51787 84.0982 6.39525 82.8126 4.08875 80.5181C1.78225 78.2236 0.480334 75.1077 0.46875 71.8543V12.7356C0.481105 9.4827 1.78336 6.36755 4.08978 4.07368C6.39619 1.77981 9.51837 0.494586 12.7713 0.500017H72.175C75.4264 0.496905 78.5463 1.78315 80.8508 4.07677C83.1553 6.37039 84.4564 9.48422 84.4688 12.7356V71.8543C84.4603 75.1098 83.1597 78.2286 80.8529 80.5257C78.546 82.8227 75.4216 84.1099 72.1663 84.1045L12.7713 84.0928Z" stroke="white" stroke-width="2.91673" stroke-miterlimit="10"/>
<path d="M72.1888 0.0820719H12.7908C11.1235 0.0778533 9.47174 0.40208 7.92974 1.03624C6.38775 1.6704 4.98576 2.60208 3.80382 3.77807C2.62188 4.95406 1.68315 6.35134 1.04121 7.89013C0.399274 9.42893 0.0667079 11.0791 0.0625 12.7464V71.8505C0.0717709 75.2176 1.41781 78.4432 3.80467 80.818C6.19153 83.1929 9.42381 84.5226 12.7908 84.5149H72.1888C75.5558 84.5226 78.7881 83.1929 81.1749 80.818C83.5618 78.4432 84.9078 75.2176 84.9171 71.8505V12.7464C84.9129 11.0791 84.5803 9.42893 83.9384 7.89013C83.2964 6.35134 82.3577 4.95406 81.1758 3.77807C79.9938 2.60208 78.5918 1.6704 77.0498 1.03624C75.5079 0.40208 73.856 0.0778533 72.1888 0.0820719ZM72.1888 0.925C75.3305 0.921117 78.3455 2.16348 80.5726 4.37959C82.7996 6.5957 84.0568 9.60463 84.0683 12.7464V71.8505C84.0568 74.9923 82.7996 78.0013 80.5726 80.2174C78.3455 82.4335 75.3305 83.6758 72.1888 83.672H12.7908C9.64908 83.6758 6.63404 82.4335 4.40702 80.2174C2.18 78.0013 0.922832 74.9923 0.91125 71.8505V12.7464C0.922832 9.60463 2.18 6.5957 4.40702 4.37959C6.63404 2.16348 9.64908 0.921117 12.7908 0.925H72.1888Z" fill="#A8A8A8"/>
<path d="M35.9752 32.3096V67.0446C35.9752 68.7697 36.6605 70.4241 37.8803 71.6438C39.1 72.8636 40.7544 73.5489 42.4794 73.5489C44.2044 73.5489 45.8588 72.8636 47.0786 71.6438C48.2983 70.4241 48.9836 68.7697 48.9836 67.0446V32.0179C48.9836 20.5115 42.8586 14.4331 31.2648 14.4331H20.7648C19.9016 14.4148 19.0434 14.569 18.2406 14.8867C17.4377 15.2044 16.7064 15.6792 16.0894 16.2832C15.4724 16.8872 14.9823 17.6083 14.6476 18.4043C14.313 19.2002 14.1406 20.055 14.1406 20.9184C14.1406 21.7818 14.313 22.6366 14.6476 23.4325C14.9823 24.2284 15.4724 24.9496 16.0894 25.5536C16.7064 26.1576 17.4377 26.6324 18.2406 26.9501C19.0434 27.2678 19.9016 27.422 20.7648 27.4037H30.944C31.6019 27.3731 32.2591 27.4782 32.8747 27.7124C33.4903 27.9465 34.0512 28.3048 34.5225 28.7649C34.9938 29.225 35.3654 29.7771 35.6143 30.3868C35.8633 30.9966 35.9841 31.6511 35.9694 32.3096" fill="#920783"/>
<path d="M64.1691 14.4342H53.7128C50.6365 14.3602 47.5779 14.9191 44.7266 16.0763C46.5514 17.577 48.0535 19.4317 49.1422 21.5285C50.231 23.6254 50.8839 25.921 51.0616 28.2769C51.9345 27.7031 52.9569 27.3988 54.0016 27.4019H64.1691C65.0323 27.4202 65.8905 27.266 66.6933 26.9483C67.4962 26.6306 68.2275 26.1558 68.8445 25.5518C69.4614 24.9478 69.9516 24.2267 70.2862 23.4307C70.6209 22.6348 70.7933 21.78 70.7933 20.9166C70.7933 20.0532 70.6209 19.1984 70.2862 18.4025C69.9516 17.6066 69.4614 16.8854 68.8445 16.2814C68.2275 15.6774 67.4962 15.2026 66.6933 14.8849C65.8905 14.5672 65.0323 14.413 64.1691 14.4313" fill="#F08200"/>
</svg>
